<svg xmlns="http://www.w3.org/2000/svg" xmlns:xlink="http://www.w3.org/1999/xlink" width="450" zoomAndPan="magnify" viewBox="0 0 337.5 225" height="300" preserveAspectRatio="xMidYMid meet" version="1.0"><defs><g/><clipPath id="982a578a77"><path d="M 110.085938 14.480469 L 285.09375 14.480469 L 285.09375 189.488281 L 110.085938 189.488281 Z M 110.085938 14.480469 " clip-rule="nonzero"/></clipPath><clipPath id="cb4c404061"><path d="M 125.0625 14.480469 L 270.113281 14.480469 C 278.386719 14.480469 285.09375 21.1875 285.09375 29.457031 L 285.09375 174.511719 C 285.09375 182.78125 278.386719 189.488281 270.113281 189.488281 L 125.0625 189.488281 C 116.789062 189.488281 110.085938 182.78125 110.085938 174.511719 L 110.085938 29.457031 C 110.085938 21.1875 116.789062 14.480469 125.0625 14.480469 Z M 125.0625 14.480469 " clip-rule="nonzero"/></clipPath><clipPath id="52ceec1a80"><path d="M 0.0859375 0.480469 L 175.09375 0.480469 L 175.09375 175.488281 L 0.0859375 175.488281 Z M 0.0859375 0.480469 " clip-rule="nonzero"/></clipPath><clipPath id="4a1c857bcd"><path d="M 15.0625 0.480469 L 160.113281 0.480469 C 168.386719 0.480469 175.09375 7.1875 175.09375 15.457031 L 175.09375 160.511719 C 175.09375 168.78125 168.386719 175.488281 160.113281 175.488281 L 15.0625 175.488281 C 6.789062 175.488281 0.0859375 168.78125 0.0859375 160.511719 L 0.0859375 15.457031 C 0.0859375 7.1875 6.789062 0.480469 15.0625 0.480469 Z M 15.0625 0.480469 " clip-rule="nonzero"/></clipPath><clipPath id="ef295c8642"><rect x="0" width="176" y="0" height="176"/></clipPath><clipPath id="835336e72c"><rect x="0" width="79" y="0" height="182"/></clipPath><clipPath id="422c20a400"><path d="M 143.789062 19.039062 L 300.308594 19.039062 L 300.308594 185 L 143.789062 185 Z M 143.789062 19.039062 " clip-rule="nonzero"/></clipPath><clipPath id="f5dead5aa3"><rect x="0" width="235" y="0" height="17"/></clipPath></defs><g clip-path="url(#982a578a77)"><g clip-path="url(#cb4c404061)"><g transform="matrix(1, 0, 0, 1, 110, 14)"><g clip-path="url(#ef295c8642)"><g clip-path="url(#52ceec1a80)"><g clip-path="url(#4a1c857bcd)"><path fill="#ffcc02" d="M 0.0859375 0.480469 L 175.09375 0.480469 L 175.09375 175.488281 L 0.0859375 175.488281 Z M 0.0859375 0.480469 " fill-opacity="1" fill-rule="nonzero"/></g></g></g></g></g></g><g transform="matrix(1, 0, 0, 1, 43, 14)"><g clip-path="url(#835336e72c)"><g fill="#ffffff" fill-opacity="1"><g transform="translate(58.001845, 181.588836)"><g><path d="M -10.734375 -39.5625 L 0 -39.5625 L 0 -4.40625 L -47.28125 -4.40625 L -47.28125 -16 L -10.734375 -16 Z M -10.734375 -39.5625 "/></g></g></g><g fill="#ffffff" fill-opacity="1"><g transform="translate(58.001845, 153.851593)"><g><path d="M -10.359375 -27.125 C -10.359375 -30.113281 -10.960938 -32.546875 -12.171875 -34.421875 C -13.378906 -36.296875 -14.988281 -37.671875 -17 -38.546875 C -19.007812 -39.429688 -21.222656 -39.875 -23.640625 -39.875 C -26.066406 -39.875 -28.28125 -39.429688 -30.28125 -38.546875 C -32.289062 -37.671875 -33.898438 -36.296875 -35.109375 -34.421875 C -36.328125 -32.546875 -36.9375 -30.113281 -36.9375 -27.125 C -36.9375 -24.132812 -36.328125 -21.695312 -35.109375 -19.8125 C -33.898438 -17.9375 -32.289062 -16.5625 -30.28125 -15.6875 C -28.28125 -14.8125 -26.066406 -14.375 -23.640625 -14.375 C -21.222656 -14.375 -19.007812 -14.8125 -17 -15.6875 C -14.988281 -16.5625 -13.378906 -17.9375 -12.171875 -19.8125 C -10.960938 -21.695312 -10.359375 -24.132812 -10.359375 -27.125 Z M 0.390625 -27.125 C 0.390625 -22.019531 -0.691406 -17.648438 -2.859375 -14.015625 C -5.023438 -10.390625 -7.921875 -7.609375 -11.546875 -5.671875 C -15.179688 -3.742188 -19.210938 -2.78125 -23.640625 -2.78125 C -28.066406 -2.78125 -32.097656 -3.742188 -35.734375 -5.671875 C -39.367188 -7.609375 -42.265625 -10.390625 -44.421875 -14.015625 C -46.585938 -17.648438 -47.671875 -22.019531 -47.671875 -27.125 C -47.671875 -32.269531 -46.585938 -36.644531 -44.421875 -40.25 C -42.265625 -43.851562 -39.367188 -46.617188 -35.734375 -48.546875 C -32.097656 -50.484375 -28.066406 -51.453125 -23.640625 -51.453125 C -19.210938 -51.453125 -15.179688 -50.484375 -11.546875 -48.546875 C -7.921875 -46.617188 -5.023438 -43.851562 -2.859375 -40.25 C -0.691406 -36.644531 0.390625 -32.269531 0.390625 -27.125 Z M 0.390625 -27.125 "/></g></g></g><g fill="#ffffff" fill-opacity="1"><g transform="translate(58.001845, 111.820018)"><g><path d="M -14.21875 -22.796875 L 0 -13.140625 L 0 0.390625 L -24.1875 -16.078125 L -47.28125 -0.390625 L -47.28125 -13.90625 L -34.15625 -22.796875 L -47.28125 -31.671875 L -47.28125 -45.203125 L -24.1875 -29.59375 L 0 -45.96875 L 0 -32.453125 Z M -14.21875 -22.796875 "/></g></g></g><g fill="#ffffff" fill-opacity="1"><g transform="translate(58.001845, 78.442256)"><g><path d="M -47.28125 -1.625 L -47.28125 -41.03125 L -36.546875 -41.03125 L -36.546875 -27.125 L 0 -27.125 L 0 -15.53125 L -36.546875 -15.53125 L -36.546875 -1.625 Z M -47.28125 -1.625 "/></g></g></g><g fill="#ffffff" fill-opacity="1"><g transform="translate(58.001845, 48.000608)"><g><path d="M -36.390625 -16 L -25.109375 -16 L -25.109375 -26.8125 C -25.109375 -28.25 -25.546875 -29.546875 -26.421875 -30.703125 C -27.296875 -31.867188 -28.738281 -32.453125 -30.75 -32.453125 C -32.757812 -32.453125 -34.203125 -31.867188 -35.078125 -30.703125 C -35.953125 -29.546875 -36.390625 -28.25 -36.390625 -26.8125 Z M -17.46875 -33.53125 C -14.53125 -35.695312 -11.601562 -37.882812 -8.6875 -40.09375 C -5.78125 -42.3125 -2.882812 -44.476562 0 -46.59375 L 0 -32.453125 C -3.707031 -29.671875 -7.398438 -26.914062 -11.078125 -24.1875 C -14.765625 -21.457031 -18.460938 -18.726562 -22.171875 -16 L 0 -16 L 0 -4.40625 L -47.28125 -4.40625 L -47.28125 -26.8125 C -47.28125 -29.851562 -46.570312 -32.609375 -45.15625 -35.078125 C -43.738281 -37.546875 -41.84375 -39.5 -39.46875 -40.9375 C -37.101562 -42.382812 -34.503906 -43.109375 -31.671875 -43.109375 C -28.535156 -43.109375 -25.691406 -42.234375 -23.140625 -40.484375 C -20.585938 -38.734375 -18.695312 -36.414062 -17.46875 -33.53125 Z M -17.46875 -33.53125 "/></g></g></g></g></g><g clip-path="url(#422c20a400)"><path fill="#ffffff" d="M 143.929688 162.132812 C 191.257812 159.007812 186.171875 139.207031 205.175781 108.429688 C 181.757812 112.539062 178.8125 127.066406 169.128906 146.378906 C 176.238281 127.433594 179.796875 111.984375 198.863281 107.203125 C 156.988281 109.472656 162.9375 132.15625 143.929688 162.132812 Z M 297.996094 184.941406 C 269.242188 139.699219 278.316406 105.425781 215.046875 101.992188 C 243.859375 109.226562 249.195312 132.523438 259.921875 161.214844 C 245.269531 132.035156 240.855469 110.023438 205.484375 103.894531 C 234.175781 150.304688 226.511719 180.222656 297.996094 184.941406 Z M 146.113281 41.851562 C 165.117188 71.832031 159.171875 94.511719 201.042969 96.78125 C 181.980469 92 178.421875 76.550781 171.3125 57.605469 C 180.996094 76.917969 183.941406 91.449219 207.359375 95.554688 C 188.355469 64.777344 193.441406 44.976562 146.113281 41.851562 Z M 300.175781 19.042969 C 271.425781 64.289062 280.5 98.5625 217.230469 101.992188 C 246.042969 94.757812 251.378906 71.460938 262.105469 42.769531 C 247.453125 71.953125 243.039062 93.960938 207.667969 100.09375 C 236.359375 53.683594 228.695312 23.765625 300.175781 19.042969 " fill-opacity="1" fill-rule="evenodd"/></g><g transform="matrix(1, 0, 0, 1, 53, 194)"><g clip-path="url(#f5dead5aa3)"><g fill="#ffffff" fill-opacity="1"><g transform="translate(1.050135, 13.424696)"><g><path d="M 7.75 -0.984375 L 7.75 0 L 1.171875 0 L 1.171875 -9.71875 L 2.359375 -9.71875 L 2.359375 -0.984375 Z M 7.75 -0.984375 "/></g></g></g><g fill="#ffffff" fill-opacity="1"><g transform="translate(12.583949, 13.424696)"><g><path d="M 4.65625 -7.59375 C 5.21875 -7.59375 5.738281 -7.492188 6.21875 -7.296875 C 6.707031 -7.097656 7.140625 -6.820312 7.515625 -6.46875 C 7.890625 -6.113281 8.179688 -5.703125 8.390625 -5.234375 C 8.597656 -4.773438 8.703125 -4.28125 8.703125 -3.75 C 8.703125 -3.226562 8.597656 -2.734375 8.390625 -2.265625 C 8.179688 -1.804688 7.890625 -1.398438 7.515625 -1.046875 C 7.140625 -0.691406 6.707031 -0.414062 6.21875 -0.21875 C 5.738281 -0.0195312 5.21875 0.078125 4.65625 0.078125 C 4.09375 0.078125 3.566406 -0.0195312 3.078125 -0.21875 C 2.585938 -0.414062 2.15625 -0.691406 1.78125 -1.046875 C 1.40625 -1.398438 1.113281 -1.804688 0.90625 -2.265625 C 0.695312 -2.734375 0.59375 -3.226562 0.59375 -3.75 C 0.59375 -4.28125 0.695312 -4.773438 0.90625 -5.234375 C 1.113281 -5.703125 1.40625 -6.113281 1.78125 -6.46875 C 2.15625 -6.820312 2.585938 -7.097656 3.078125 -7.296875 C 3.566406 -7.492188 4.09375 -7.59375 4.65625 -7.59375 Z M 4.65625 -0.9375 C 5.195312 -0.9375 5.6875 -1.0625 6.125 -1.3125 C 6.570312 -1.5625 6.925781 -1.898438 7.1875 -2.328125 C 7.445312 -2.765625 7.578125 -3.238281 7.578125 -3.75 C 7.578125 -4.269531 7.445312 -4.742188 7.1875 -5.171875 C 6.925781 -5.597656 6.570312 -5.9375 6.125 -6.1875 C 5.6875 -6.445312 5.195312 -6.578125 4.65625 -6.578125 C 4.113281 -6.578125 3.617188 -6.445312 3.171875 -6.1875 C 2.734375 -5.9375 2.378906 -5.597656 2.109375 -5.171875 C 1.847656 -4.742188 1.71875 -4.269531 1.71875 -3.75 C 1.71875 -3.238281 1.847656 -2.765625 2.109375 -2.328125 C 2.378906 -1.898438 2.734375 -1.5625 3.171875 -1.3125 C 3.617188 -1.0625 4.113281 -0.9375 4.65625 -0.9375 Z M 4.65625 -0.9375 "/></g></g></g><g fill="#ffffff" fill-opacity="1"><g transform="translate(25.330303, 13.424696)"><g><path d="M 6.71875 -1.984375 L 7.453125 -1.296875 C 7.117188 -0.867188 6.707031 -0.53125 6.21875 -0.28125 C 5.738281 -0.0390625 5.222656 0.078125 4.671875 0.078125 C 4.109375 0.078125 3.582031 -0.0195312 3.09375 -0.21875 C 2.601562 -0.414062 2.171875 -0.691406 1.796875 -1.046875 C 1.421875 -1.398438 1.128906 -1.804688 0.921875 -2.265625 C 0.710938 -2.734375 0.609375 -3.226562 0.609375 -3.75 C 0.609375 -4.28125 0.710938 -4.773438 0.921875 -5.234375 C 1.128906 -5.703125 1.421875 -6.113281 1.796875 -6.46875 C 2.171875 -6.820312 2.601562 -7.097656 3.09375 -7.296875 C 3.582031 -7.492188 4.109375 -7.59375 4.671875 -7.59375 C 5.242188 -7.59375 5.769531 -7.46875 6.25 -7.21875 C 6.726562 -6.976562 7.132812 -6.65625 7.46875 -6.25 L 6.71875 -5.546875 C 6.476562 -5.859375 6.179688 -6.109375 5.828125 -6.296875 C 5.472656 -6.484375 5.085938 -6.578125 4.671875 -6.578125 C 4.128906 -6.578125 3.632812 -6.445312 3.1875 -6.1875 C 2.738281 -5.9375 2.382812 -5.597656 2.125 -5.171875 C 1.863281 -4.742188 1.734375 -4.269531 1.734375 -3.75 C 1.734375 -3.238281 1.863281 -2.765625 2.125 -2.328125 C 2.382812 -1.898438 2.738281 -1.5625 3.1875 -1.3125 C 3.632812 -1.0625 4.128906 -0.9375 4.671875 -0.9375 C 5.078125 -0.9375 5.457031 -1.03125 5.8125 -1.21875 C 6.175781 -1.414062 6.476562 -1.671875 6.71875 -1.984375 Z M 6.71875 -1.984375 "/></g></g></g><g fill="#ffffff" fill-opacity="1"><g transform="translate(36.781443, 13.424696)"><g><path d="M 8.171875 -7.453125 L 8.171875 0 L 7.03125 0 L 7.03125 -0.75 C 6.6875 -0.488281 6.296875 -0.285156 5.859375 -0.140625 C 5.421875 0.00390625 4.945312 0.078125 4.4375 0.078125 C 3.695312 0.078125 3.039062 -0.0976562 2.46875 -0.453125 C 1.894531 -0.804688 1.445312 -1.273438 1.125 -1.859375 C 0.800781 -2.453125 0.640625 -3.085938 0.640625 -3.765625 C 0.640625 -4.441406 0.800781 -5.070312 1.125 -5.65625 C 1.445312 -6.238281 1.894531 -6.707031 2.46875 -7.0625 C 3.039062 -7.414062 3.695312 -7.59375 4.4375 -7.59375 C 4.925781 -7.59375 5.394531 -7.519531 5.84375 -7.375 C 6.300781 -7.226562 6.695312 -7.023438 7.03125 -6.765625 L 7.03125 -7.453125 Z M 7.03125 -1.8125 L 7.03125 -5.671875 C 6.738281 -5.960938 6.382812 -6.1875 5.96875 -6.34375 C 5.550781 -6.5 5.097656 -6.578125 4.609375 -6.578125 C 4.066406 -6.578125 3.578125 -6.445312 3.140625 -6.1875 C 2.710938 -5.925781 2.375 -5.582031 2.125 -5.15625 C 1.875 -4.738281 1.75 -4.273438 1.75 -3.765625 C 1.75 -3.253906 1.875 -2.78125 2.125 -2.34375 C 2.375 -1.914062 2.710938 -1.570312 3.140625 -1.3125 C 3.578125 -1.0625 4.066406 -0.9375 4.609375 -0.9375 C 5.109375 -0.9375 5.5625 -1.015625 5.96875 -1.171875 C 6.382812 -1.328125 6.738281 -1.539062 7.03125 -1.8125 Z M 7.03125 -1.8125 "/></g></g></g><g fill="#ffffff" fill-opacity="1"><g transform="translate(49.348676, 13.424696)"><g><path d="M 2.6875 -6.5 L 2.6875 -2.75 C 2.6875 -2.0625 2.804688 -1.582031 3.046875 -1.3125 C 3.285156 -1.039062 3.644531 -0.90625 4.125 -0.90625 C 4.363281 -0.90625 4.566406 -0.914062 4.734375 -0.9375 C 4.910156 -0.96875 5.0625 -0.988281 5.1875 -1 L 5.1875 -0.140625 C 5.09375 -0.109375 4.921875 -0.0625 4.671875 0 C 4.421875 0.0507812 4.085938 0.078125 3.671875 0.078125 C 3.285156 0.078125 2.925781 -0.00390625 2.59375 -0.171875 C 2.269531 -0.335938 2.007812 -0.585938 1.8125 -0.921875 C 1.625 -1.253906 1.53125 -1.664062 1.53125 -2.15625 L 1.53125 -6.5 L 0.296875 -6.5 L 0.296875 -7.453125 L 1.53125 -7.453125 L 1.53125 -10.390625 L 2.6875 -10.390625 L 2.6875 -7.453125 L 5.203125 -7.453125 L 5.203125 -6.5 Z M 2.6875 -6.5 "/></g></g></g><g fill="#ffffff" fill-opacity="1"><g transform="translate(58.099176, 13.424696)"><g><path d="M 8 -3.390625 L 1.765625 -3.390625 C 1.828125 -2.898438 1.992188 -2.46875 2.265625 -2.09375 C 2.546875 -1.726562 2.890625 -1.441406 3.296875 -1.234375 C 3.703125 -1.023438 4.140625 -0.921875 4.609375 -0.921875 C 5.078125 -0.921875 5.515625 -1.015625 5.921875 -1.203125 C 6.335938 -1.390625 6.6875 -1.660156 6.96875 -2.015625 L 7.734375 -1.40625 C 7.390625 -0.957031 6.925781 -0.597656 6.34375 -0.328125 C 5.769531 -0.0546875 5.125 0.078125 4.40625 0.078125 C 3.664062 0.078125 3.007812 -0.09375 2.4375 -0.4375 C 1.863281 -0.78125 1.414062 -1.242188 1.09375 -1.828125 C 0.78125 -2.410156 0.625 -3.050781 0.625 -3.75 C 0.625 -4.457031 0.78125 -5.101562 1.09375 -5.6875 C 1.414062 -6.269531 1.863281 -6.734375 2.4375 -7.078125 C 3.007812 -7.421875 3.664062 -7.59375 4.40625 -7.59375 C 5.15625 -7.59375 5.800781 -7.425781 6.34375 -7.09375 C 6.882812 -6.757812 7.296875 -6.300781 7.578125 -5.71875 C 7.867188 -5.132812 8.015625 -4.457031 8.015625 -3.6875 C 8.015625 -3.625 8.007812 -3.554688 8 -3.484375 C 8 -3.421875 8 -3.390625 8 -3.390625 Z M 4.40625 -6.65625 C 3.9375 -6.65625 3.515625 -6.546875 3.140625 -6.328125 C 2.765625 -6.117188 2.457031 -5.835938 2.21875 -5.484375 C 1.988281 -5.140625 1.84375 -4.738281 1.78125 -4.28125 L 6.90625 -4.28125 C 6.851562 -4.96875 6.617188 -5.535156 6.203125 -5.984375 C 5.785156 -6.429688 5.1875 -6.65625 4.40625 -6.65625 Z M 4.40625 -6.65625 "/></g></g></g><g fill="#ffffff" fill-opacity="1"><g transform="translate(70.156591, 13.424696)"><g/></g></g><g fill="#ffffff" fill-opacity="1"><g transform="translate(75.228152, 13.424696)"><g><path d="M 4.375 -4.84375 C 4.375 -4.414062 4.222656 -4.050781 3.921875 -3.75 C 3.617188 -3.445312 3.253906 -3.296875 2.828125 -3.296875 C 2.390625 -3.296875 2.019531 -3.445312 1.71875 -3.75 C 1.414062 -4.050781 1.265625 -4.414062 1.265625 -4.84375 C 1.265625 -5.28125 1.414062 -5.644531 1.71875 -5.9375 C 2.019531 -6.238281 2.390625 -6.390625 2.828125 -6.390625 C 3.253906 -6.390625 3.617188 -6.238281 3.921875 -5.9375 C 4.222656 -5.644531 4.375 -5.28125 4.375 -4.84375 Z M 4.375 -4.84375 "/></g></g></g><g fill="#ffffff" fill-opacity="1"><g transform="translate(84.295567, 13.424696)"><g/></g></g><g fill="#ffffff" fill-opacity="1"><g transform="translate(89.367128, 13.424696)"><g><path d="M 5.84375 -9.78125 C 6.5625 -9.78125 7.226562 -9.648438 7.84375 -9.390625 C 8.46875 -9.140625 9.015625 -8.785156 9.484375 -8.328125 C 9.953125 -7.878906 10.316406 -7.359375 10.578125 -6.765625 C 10.847656 -6.171875 10.984375 -5.53125 10.984375 -4.84375 C 10.984375 -4.164062 10.847656 -3.53125 10.578125 -2.9375 C 10.316406 -2.34375 9.953125 -1.816406 9.484375 -1.359375 C 9.015625 -0.910156 8.46875 -0.554688 7.84375 -0.296875 C 7.226562 -0.046875 6.5625 0.078125 5.84375 0.078125 C 5.132812 0.078125 4.46875 -0.046875 3.84375 -0.296875 C 3.226562 -0.554688 2.6875 -0.910156 2.21875 -1.359375 C 1.75 -1.816406 1.378906 -2.34375 1.109375 -2.9375 C 0.847656 -3.53125 0.71875 -4.164062 0.71875 -4.84375 C 0.71875 -5.53125 0.847656 -6.171875 1.109375 -6.765625 C 1.378906 -7.359375 1.75 -7.878906 2.21875 -8.328125 C 2.6875 -8.785156 3.226562 -9.140625 3.84375 -9.390625 C 4.46875 -9.648438 5.132812 -9.78125 5.84375 -9.78125 Z M 5.84375 -1 C 6.382812 -1 6.894531 -1.097656 7.375 -1.296875 C 7.851562 -1.492188 8.269531 -1.769531 8.625 -2.125 C 8.988281 -2.476562 9.269531 -2.882812 9.46875 -3.34375 C 9.664062 -3.8125 9.765625 -4.3125 9.765625 -4.84375 C 9.765625 -5.382812 9.664062 -5.882812 9.46875 -6.34375 C 9.269531 -6.8125 8.988281 -7.222656 8.625 -7.578125 C 8.269531 -7.929688 7.851562 -8.207031 7.375 -8.40625 C 6.894531 -8.601562 6.382812 -8.703125 5.84375 -8.703125 C 5.300781 -8.703125 4.789062 -8.601562 4.3125 -8.40625 C 3.84375 -8.207031 3.425781 -7.929688 3.0625 -7.578125 C 2.695312 -7.222656 2.414062 -6.8125 2.21875 -6.34375 C 2.019531 -5.882812 1.921875 -5.382812 1.921875 -4.84375 C 1.921875 -4.3125 2.019531 -3.8125 2.21875 -3.34375 C 2.414062 -2.882812 2.695312 -2.476562 3.0625 -2.125 C 3.425781 -1.769531 3.84375 -1.492188 4.3125 -1.296875 C 4.789062 -1.097656 5.300781 -1 5.84375 -1 Z M 5.84375 -1 "/></g></g></g><g fill="#ffffff" fill-opacity="1"><g transform="translate(104.497216, 13.424696)"><g><path d="M 4.765625 -7.59375 C 5.472656 -7.59375 6.117188 -7.425781 6.703125 -7.09375 C 7.285156 -6.757812 7.75 -6.300781 8.09375 -5.71875 C 8.4375 -5.144531 8.609375 -4.488281 8.609375 -3.75 C 8.609375 -3.007812 8.4375 -2.347656 8.09375 -1.765625 C 7.75 -1.191406 7.285156 -0.738281 6.703125 -0.40625 C 6.117188 -0.0820312 5.472656 0.078125 4.765625 0.078125 C 4.285156 0.078125 3.816406 0.0078125 3.359375 -0.125 C 2.910156 -0.269531 2.519531 -0.472656 2.1875 -0.734375 L 2.1875 0 L 1.046875 0 L 1.046875 -10.390625 L 2.1875 -10.390625 L 2.1875 -6.8125 C 2.53125 -7.050781 2.921875 -7.238281 3.359375 -7.375 C 3.796875 -7.519531 4.265625 -7.59375 4.765625 -7.59375 Z M 4.609375 -0.9375 C 5.148438 -0.9375 5.632812 -1.0625 6.0625 -1.3125 C 6.5 -1.5625 6.84375 -1.894531 7.09375 -2.3125 C 7.34375 -2.738281 7.46875 -3.21875 7.46875 -3.75 C 7.46875 -4.28125 7.34375 -4.753906 7.09375 -5.171875 C 6.84375 -5.597656 6.5 -5.9375 6.0625 -6.1875 C 5.632812 -6.445312 5.148438 -6.578125 4.609375 -6.578125 C 4.097656 -6.578125 3.640625 -6.5 3.234375 -6.34375 C 2.828125 -6.1875 2.476562 -5.972656 2.1875 -5.703125 L 2.1875 -1.828125 C 2.476562 -1.546875 2.832031 -1.328125 3.25 -1.171875 C 3.664062 -1.015625 4.117188 -0.9375 4.609375 -0.9375 Z M 4.609375 -0.9375 "/></g></g></g><g fill="#ffffff" fill-opacity="1"><g transform="translate(117.078223, 13.424696)"><g><path d="M 2.6875 -6.5 L 2.6875 -2.75 C 2.6875 -2.0625 2.804688 -1.582031 3.046875 -1.3125 C 3.285156 -1.039062 3.644531 -0.90625 4.125 -0.90625 C 4.363281 -0.90625 4.566406 -0.914062 4.734375 -0.9375 C 4.910156 -0.96875 5.0625 -0.988281 5.1875 -1 L 5.1875 -0.140625 C 5.09375 -0.109375 4.921875 -0.0625 4.671875 0 C 4.421875 0.0507812 4.085938 0.078125 3.671875 0.078125 C 3.285156 0.078125 2.925781 -0.00390625 2.59375 -0.171875 C 2.269531 -0.335938 2.007812 -0.585938 1.8125 -0.921875 C 1.625 -1.253906 1.53125 -1.664062 1.53125 -2.15625 L 1.53125 -6.5 L 0.296875 -6.5 L 0.296875 -7.453125 L 1.53125 -7.453125 L 1.53125 -10.390625 L 2.6875 -10.390625 L 2.6875 -7.453125 L 5.203125 -7.453125 L 5.203125 -6.5 Z M 2.6875 -6.5 "/></g></g></g><g fill="#ffffff" fill-opacity="1"><g transform="translate(126.035408, 13.424696)"><g><path d="M 8.171875 -7.453125 L 8.171875 0 L 7.03125 0 L 7.03125 -0.75 C 6.6875 -0.488281 6.296875 -0.285156 5.859375 -0.140625 C 5.421875 0.00390625 4.945312 0.078125 4.4375 0.078125 C 3.695312 0.078125 3.039062 -0.0976562 2.46875 -0.453125 C 1.894531 -0.804688 1.445312 -1.273438 1.125 -1.859375 C 0.800781 -2.453125 0.640625 -3.085938 0.640625 -3.765625 C 0.640625 -4.441406 0.800781 -5.070312 1.125 -5.65625 C 1.445312 -6.238281 1.894531 -6.707031 2.46875 -7.0625 C 3.039062 -7.414062 3.695312 -7.59375 4.4375 -7.59375 C 4.925781 -7.59375 5.394531 -7.519531 5.84375 -7.375 C 6.300781 -7.226562 6.695312 -7.023438 7.03125 -6.765625 L 7.03125 -7.453125 Z M 7.03125 -1.8125 L 7.03125 -5.671875 C 6.738281 -5.960938 6.382812 -6.1875 5.96875 -6.34375 C 5.550781 -6.5 5.097656 -6.578125 4.609375 -6.578125 C 4.066406 -6.578125 3.578125 -6.445312 3.140625 -6.1875 C 2.710938 -5.925781 2.375 -5.582031 2.125 -5.15625 C 1.875 -4.738281 1.75 -4.273438 1.75 -3.765625 C 1.75 -3.253906 1.875 -2.78125 2.125 -2.34375 C 2.375 -1.914062 2.710938 -1.570312 3.140625 -1.3125 C 3.578125 -1.0625 4.066406 -0.9375 4.609375 -0.9375 C 5.109375 -0.9375 5.5625 -1.015625 5.96875 -1.171875 C 6.382812 -1.328125 6.738281 -1.539062 7.03125 -1.8125 Z M 7.03125 -1.8125 "/></g></g></g><g fill="#ffffff" fill-opacity="1"><g transform="translate(138.671533, 13.424696)"><g><path d="M 1.65625 -8.703125 C 1.445312 -8.703125 1.269531 -8.769531 1.125 -8.90625 C 0.988281 -9.039062 0.921875 -9.207031 0.921875 -9.40625 C 0.921875 -9.613281 0.988281 -9.78125 1.125 -9.90625 C 1.269531 -10.039062 1.445312 -10.109375 1.65625 -10.109375 C 1.84375 -10.109375 2.003906 -10.039062 2.140625 -9.90625 C 2.285156 -9.78125 2.359375 -9.613281 2.359375 -9.40625 C 2.359375 -9.207031 2.285156 -9.039062 2.140625 -8.90625 C 2.003906 -8.769531 1.84375 -8.703125 1.65625 -8.703125 Z M 1.078125 -7.453125 L 2.21875 -7.453125 L 2.21875 0 L 1.078125 0 Z M 1.078125 -7.453125 "/></g></g></g><g fill="#ffffff" fill-opacity="1"><g transform="translate(145.396551, 13.424696)"><g><path d="M 4.6875 -7.59375 C 5.675781 -7.59375 6.457031 -7.316406 7.03125 -6.765625 C 7.601562 -6.222656 7.890625 -5.378906 7.890625 -4.234375 L 7.890625 0 L 6.734375 0 L 6.734375 -4.234375 C 6.734375 -5.003906 6.523438 -5.585938 6.109375 -5.984375 C 5.703125 -6.378906 5.164062 -6.578125 4.5 -6.578125 C 4.019531 -6.578125 3.585938 -6.5 3.203125 -6.34375 C 2.816406 -6.195312 2.476562 -5.992188 2.1875 -5.734375 L 2.1875 0 L 1.046875 0 L 1.046875 -7.453125 L 2.1875 -7.453125 L 2.1875 -6.734375 C 2.832031 -7.304688 3.664062 -7.59375 4.6875 -7.59375 Z M 4.6875 -7.59375 "/></g></g></g><g fill="#ffffff" fill-opacity="1"><g transform="translate(157.605524, 13.424696)"><g/></g></g><g fill="#ffffff" fill-opacity="1"><g transform="translate(162.677094, 13.424696)"><g><path d="M 4.375 -4.84375 C 4.375 -4.414062 4.222656 -4.050781 3.921875 -3.75 C 3.617188 -3.445312 3.253906 -3.296875 2.828125 -3.296875 C 2.390625 -3.296875 2.019531 -3.445312 1.71875 -3.75 C 1.414062 -4.050781 1.265625 -4.414062 1.265625 -4.84375 C 1.265625 -5.28125 1.414062 -5.644531 1.71875 -5.9375 C 2.019531 -6.238281 2.390625 -6.390625 2.828125 -6.390625 C 3.253906 -6.390625 3.617188 -6.238281 3.921875 -5.9375 C 4.222656 -5.644531 4.375 -5.28125 4.375 -4.84375 Z M 4.375 -4.84375 "/></g></g></g><g fill="#ffffff" fill-opacity="1"><g transform="translate(171.744517, 13.424696)"><g/></g></g><g fill="#ffffff" fill-opacity="1"><g transform="translate(176.81607, 13.424696)"><g><path d="M 7.984375 -9.71875 L 9.3125 -9.71875 L 5.671875 -4.875 L 9.359375 0 L 8 0 L 4.921875 -4 L 1.828125 0 L 0.46875 0 L 4.15625 -4.875 L 0.53125 -9.71875 L 1.859375 -9.71875 L 4.921875 -5.75 Z M 7.984375 -9.71875 "/></g></g></g><g fill="#ffffff" fill-opacity="1"><g transform="translate(189.989568, 13.424696)"><g><path d="M 4.765625 -7.59375 C 5.472656 -7.59375 6.117188 -7.425781 6.703125 -7.09375 C 7.285156 -6.757812 7.75 -6.304688 8.09375 -5.734375 C 8.4375 -5.160156 8.609375 -4.503906 8.609375 -3.765625 C 8.609375 -3.023438 8.4375 -2.363281 8.09375 -1.78125 C 7.75 -1.195312 7.285156 -0.738281 6.703125 -0.40625 C 6.117188 -0.0820312 5.472656 0.078125 4.765625 0.078125 C 4.265625 0.078125 3.796875 0.0078125 3.359375 -0.125 C 2.921875 -0.269531 2.53125 -0.460938 2.1875 -0.703125 L 2.1875 2.40625 L 1.046875 2.40625 L 1.046875 -7.453125 L 2.1875 -7.453125 L 2.1875 -6.78125 C 2.507812 -7.03125 2.898438 -7.226562 3.359375 -7.375 C 3.816406 -7.519531 4.285156 -7.59375 4.765625 -7.59375 Z M 4.609375 -0.9375 C 5.148438 -0.9375 5.632812 -1.0625 6.0625 -1.3125 C 6.5 -1.5625 6.84375 -1.898438 7.09375 -2.328125 C 7.34375 -2.753906 7.46875 -3.234375 7.46875 -3.765625 C 7.46875 -4.285156 7.34375 -4.757812 7.09375 -5.1875 C 6.84375 -5.613281 6.5 -5.953125 6.0625 -6.203125 C 5.632812 -6.453125 5.148438 -6.578125 4.609375 -6.578125 C 4.117188 -6.578125 3.664062 -6.5 3.25 -6.34375 C 2.832031 -6.1875 2.476562 -5.960938 2.1875 -5.671875 L 2.1875 -1.8125 C 2.476562 -1.539062 2.828125 -1.328125 3.234375 -1.171875 C 3.640625 -1.015625 4.097656 -0.9375 4.609375 -0.9375 Z M 4.609375 -0.9375 "/></g></g></g><g fill="#ffffff" fill-opacity="1"><g transform="translate(202.667021, 13.424696)"><g><path d="M 4.65625 -7.59375 C 5.21875 -7.59375 5.738281 -7.492188 6.21875 -7.296875 C 6.707031 -7.097656 7.140625 -6.820312 7.515625 -6.46875 C 7.890625 -6.113281 8.179688 -5.703125 8.390625 -5.234375 C 8.597656 -4.773438 8.703125 -4.28125 8.703125 -3.75 C 8.703125 -3.226562 8.597656 -2.734375 8.390625 -2.265625 C 8.179688 -1.804688 7.890625 -1.398438 7.515625 -1.046875 C 7.140625 -0.691406 6.707031 -0.414062 6.21875 -0.21875 C 5.738281 -0.0195312 5.21875 0.078125 4.65625 0.078125 C 4.09375 0.078125 3.566406 -0.0195312 3.078125 -0.21875 C 2.585938 -0.414062 2.15625 -0.691406 1.78125 -1.046875 C 1.40625 -1.398438 1.113281 -1.804688 0.90625 -2.265625 C 0.695312 -2.734375 0.59375 -3.226562 0.59375 -3.75 C 0.59375 -4.28125 0.695312 -4.773438 0.90625 -5.234375 C 1.113281 -5.703125 1.40625 -6.113281 1.78125 -6.46875 C 2.15625 -6.820312 2.585938 -7.097656 3.078125 -7.296875 C 3.566406 -7.492188 4.09375 -7.59375 4.65625 -7.59375 Z M 4.65625 -0.9375 C 5.195312 -0.9375 5.6875 -1.0625 6.125 -1.3125 C 6.570312 -1.5625 6.925781 -1.898438 7.1875 -2.328125 C 7.445312 -2.765625 7.578125 -3.238281 7.578125 -3.75 C 7.578125 -4.269531 7.445312 -4.742188 7.1875 -5.171875 C 6.925781 -5.597656 6.570312 -5.9375 6.125 -6.1875 C 5.6875 -6.445312 5.195312 -6.578125 4.65625 -6.578125 C 4.113281 -6.578125 3.617188 -6.445312 3.171875 -6.1875 C 2.734375 -5.9375 2.378906 -5.597656 2.109375 -5.171875 C 1.847656 -4.742188 1.71875 -4.269531 1.71875 -3.75 C 1.71875 -3.238281 1.847656 -2.765625 2.109375 -2.328125 C 2.378906 -1.898438 2.734375 -1.5625 3.171875 -1.3125 C 3.617188 -1.0625 4.113281 -0.9375 4.65625 -0.9375 Z M 4.65625 -0.9375 "/></g></g></g><g fill="#ffffff" fill-opacity="1"><g transform="translate(215.413385, 13.424696)"><g><path d="M 2.1875 -7.453125 L 2.1875 -6 C 2.425781 -6.476562 2.753906 -6.859375 3.171875 -7.140625 C 3.585938 -7.429688 4.078125 -7.582031 4.640625 -7.59375 C 4.941406 -7.59375 5.242188 -7.519531 5.546875 -7.375 L 5.46875 -6.25 C 5.09375 -6.40625 4.738281 -6.484375 4.40625 -6.484375 C 3.9375 -6.484375 3.535156 -6.351562 3.203125 -6.09375 C 2.878906 -5.84375 2.628906 -5.515625 2.453125 -5.109375 C 2.273438 -4.703125 2.1875 -4.257812 2.1875 -3.78125 L 2.1875 0 L 1.046875 0 L 1.046875 -7.453125 Z M 2.1875 -7.453125 "/></g></g></g><g fill="#ffffff" fill-opacity="1"><g transform="translate(224.82527, 13.424696)"><g><path d="M 2.6875 -6.5 L 2.6875 -2.75 C 2.6875 -2.0625 2.804688 -1.582031 3.046875 -1.3125 C 3.285156 -1.039062 3.644531 -0.90625 4.125 -0.90625 C 4.363281 -0.90625 4.566406 -0.914062 4.734375 -0.9375 C 4.910156 -0.96875 5.0625 -0.988281 5.1875 -1 L 5.1875 -0.140625 C 5.09375 -0.109375 4.921875 -0.0625 4.671875 0 C 4.421875 0.0507812 4.085938 0.078125 3.671875 0.078125 C 3.285156 0.078125 2.925781 -0.00390625 2.59375 -0.171875 C 2.269531 -0.335938 2.007812 -0.585938 1.8125 -0.921875 C 1.625 -1.253906 1.53125 -1.664062 1.53125 -2.15625 L 1.53125 -6.5 L 0.296875 -6.5 L 0.296875 -7.453125 L 1.53125 -7.453125 L 1.53125 -10.390625 L 2.6875 -10.390625 L 2.6875 -7.453125 L 5.203125 -7.453125 L 5.203125 -6.5 Z M 2.6875 -6.5 "/></g></g></g></g></g></svg>