<svg xmlns="http://www.w3.org/2000/svg" xmlns:xlink="http://www.w3.org/1999/xlink" width="1000" zoomAndPan="magnify" viewBox="0 0 750 749.999995" height="1000" preserveAspectRatio="xMidYMid meet" version="1.0"><defs><clipPath id="1404e2c58f"><path d="M 30 150.730469 L 92.640625 150.730469 L 92.640625 213.371094 L 30 213.371094 Z M 30 150.730469 " clip-rule="nonzero"/></clipPath><clipPath id="129be3da4a"><path d="M 45 150.730469 L 77.640625 150.730469 C 81.621094 150.730469 85.4375 152.308594 88.25 155.121094 C 91.0625 157.9375 92.640625 161.75 92.640625 165.730469 L 92.640625 198.371094 C 92.640625 202.351562 91.0625 206.164062 88.25 208.980469 C 85.4375 211.792969 81.621094 213.371094 77.640625 213.371094 L 45 213.371094 C 41.023438 213.371094 37.207031 211.792969 34.394531 208.980469 C 31.582031 206.164062 30 202.351562 30 198.371094 L 30 165.730469 C 30 161.75 31.582031 157.9375 34.394531 155.121094 C 37.207031 152.308594 41.023438 150.730469 45 150.730469 Z M 45 150.730469 " clip-rule="nonzero"/></clipPath><clipPath id="70beeda236"><path d="M 0 0.730469 L 62.640625 0.730469 L 62.640625 63.371094 L 0 63.371094 Z M 0 0.730469 " clip-rule="nonzero"/></clipPath><clipPath id="dd0856884b"><path d="M 15 0.730469 L 47.640625 0.730469 C 51.621094 0.730469 55.4375 2.308594 58.25 5.121094 C 61.0625 7.9375 62.640625 11.75 62.640625 15.730469 L 62.640625 48.371094 C 62.640625 52.351562 61.0625 56.164062 58.25 58.980469 C 55.4375 61.792969 51.621094 63.371094 47.640625 63.371094 L 15 63.371094 C 11.023438 63.371094 7.207031 61.792969 4.394531 58.980469 C 1.582031 56.164062 0 52.351562 0 48.371094 L 0 15.730469 C 0 11.75 1.582031 7.9375 4.394531 5.121094 C 7.207031 2.308594 11.023438 0.730469 15 0.730469 Z M 15 0.730469 " clip-rule="nonzero"/></clipPath><clipPath id="7b764c323d"><rect x="0" width="63" y="0" height="64"/></clipPath><clipPath id="8ef9fb2678"><path d="M 104 87.789062 L 646 87.789062 L 646 662.289062 L 104 662.289062 Z M 104 87.789062 " clip-rule="nonzero"/></clipPath></defs><rect x="-75" width="900" fill="#ffffff" y="-74.999999" height="899.999994" fill-opacity="1"/><rect x="-75" width="900" fill="#ffcc02" y="-74.999999" height="899.999994" fill-opacity="1"/><g clip-path="url(#1404e2c58f)"><g clip-path="url(#129be3da4a)"><g transform="matrix(1, 0, 0, 1, 30, 150)"><g clip-path="url(#7b764c323d)"><g clip-path="url(#70beeda236)"><g clip-path="url(#dd0856884b)"><path fill="#ffcc02" d="M 0 0.730469 L 62.640625 0.730469 L 62.640625 63.371094 L 0 63.371094 Z M 0 0.730469 " fill-opacity="1" fill-rule="nonzero"/></g></g></g></g></g></g><g clip-path="url(#8ef9fb2678)"><path fill="#ffffff" d="M 104.484375 583.273438 C 268.367188 572.449219 250.75 503.886719 316.554688 397.320312 C 235.464844 411.539062 225.273438 461.855469 191.734375 528.71875 C 216.355469 463.125 228.671875 409.628906 294.691406 393.074219 C 149.699219 400.921875 170.292969 479.472656 104.484375 583.273438 Z M 637.949219 662.25 C 538.386719 505.585938 569.804688 386.914062 350.734375 375.027344 C 450.503906 400.078125 468.972656 480.746094 506.125 580.089844 C 455.390625 479.046875 440.101562 402.835938 317.617188 381.609375 C 416.96875 542.308594 390.429688 645.902344 637.949219 662.25 Z M 112.046875 166.777344 C 177.851562 270.585938 157.261719 349.128906 302.25 356.984375 C 236.230469 340.425781 223.917969 286.933594 199.292969 221.335938 C 232.835938 288.203125 243.023438 338.511719 324.117188 352.738281 C 258.308594 246.171875 275.925781 177.605469 112.046875 166.777344 Z M 645.507812 87.808594 C 545.953125 244.472656 577.371094 363.144531 358.292969 375.027344 C 458.066406 349.980469 476.53125 269.3125 513.683594 169.960938 C 462.949219 271.007812 447.660156 347.21875 325.179688 368.449219 C 424.527344 207.746094 397.988281 104.15625 645.507812 87.808594 " fill-opacity="1" fill-rule="evenodd"/></g></svg>